<?xml version="1.0" encoding="UTF-8"?>
<svg id="Layer_1" data-name="Layer 1" xmlns="http://www.w3.org/2000/svg" viewBox="0 0 213.84 235.83">
  <defs>
    <style>
      .cls-1 {
        fill: #593e3b;
        stroke-width: 0px;
      }
    </style>
  </defs>
  <path class="cls-1" d="M213.84,118.91c-2.51,7.66-3.04,15.79-5.87,23.4-11.22,30.12-31.23,51.76-61.11,64-2.29.94-4.73,1.51-7.82,2.49.88-5.15,1.66-9.79,2.46-14.42.3-1.76,1.78-2.18,3.14-2.84,31.17-15.08,49.51-39.92,53.74-74.12,6.29-50.93-32.29-96.08-79.56-101.68C72,10.19,27.51,39.45,16.6,87.52c-8.78,38.68,10.16,81.06,44.82,99.81,10.17,5.5,11.39,7.66,11.23,20.42-12.19-3.17-22.75-9.21-32.29-17.04C19.53,173.6,6.35,151.91,1.76,125.18c-.21-1.22-.11-2.76-1.76-3.27v-27.98c1.74-1.44,1.38-3.63,1.69-5.45C9.21,45.48,41.99,11.32,84.51,2.25c3.15-.67,6.55-.38,9.41-2.25h22.98c2.56,1.79,5.65,1.24,8.48,1.85,40.13,8.63,67.84,31.77,82.65,70.23,2.86,7.42,3.31,15.38,5.8,22.86v23.98Z"/>
  <path class="cls-1" d="M103.92,235.83c-11.79-6.12-15.84-17.37-18.81-29.09-3.94-15.54-5.21-31.43-4.81-47.42.37-14.85,11.81-25.92,26.16-25.77,14.38.15,25.33,11.44,25.45,26.43.16,19-1.05,37.83-7.51,55.95-2.98,8.35-7.62,15.37-15.48,19.9h-5Z"/>
  <path class="cls-1" d="M68.24,166.49c-22.57-10.34-37.61-44.27-31.9-71.46,6.79-32.32,34.9-56.81,65.58-57.13,35.32-.36,64.27,21.1,72.06,52.93,8.35,34.12-10.08,65.45-30.06,75.64,0-5.79-.27-11.34.11-16.85.19-2.71,3.07-4.18,4.78-6.15,21.15-24.37,16.21-63.81-10.75-81.57-17.41-11.47-36.3-14.04-55.43-4.65-19.53,9.58-30.97,25.61-32.28,47.51-.88,14.7,3.54,28.38,13.73,39.46,3.23,3.51,4.56,6.98,4.2,11.55-.27,3.46-.05,6.96-.05,10.72Z"/>
  <path class="cls-1" d="M106.93,73.66c13.67,0,25.28,11.97,25.34,26.15.07,14.11-11.82,26.06-25.97,26.12-14.39.06-26.37-12-26.23-26.39.14-14.22,12.24-25.88,26.86-25.88Z"/>
</svg>