<?xml version="1.0" encoding="UTF-8"?>
<svg id="Layer_1" data-name="Layer 1" xmlns="http://www.w3.org/2000/svg" viewBox="0 0 224.85 224.85">
  <defs>
    <style>
      .cls-1 {
        fill: #593e3b;
      }

      .cls-1, .cls-2, .cls-3, .cls-4 {
        stroke-width: 0px;
      }

      .cls-2 {
        fill: #969696;
      }

      .cls-3 {
        fill: #979797;
      }

      .cls-4 {
        fill: #777;
      }
    </style>
  </defs>
  <path class="cls-1" d="M156.9,224.85h-2c-.57-1.71-1.9-.76-2.94-.83-1.14-.15-2.33-.5-3.06.83h-72.95c-.73-1.34-1.92-.98-3.06-.83-1.04.07-2.36-.88-2.94.83h-4c-2.46-2.02-5.58-1.42-8.34-1.81-28.44-4.03-48.55-22.7-54.87-50.93-.98-4.4-.6-9.08-2.75-13.22v-4c1.7-.58.77-1.9.83-2.94.16-1.14.51-2.33-.83-3.06v-72.95c1.34-.73.99-1.92.83-3.06-.06-1.04.88-2.36-.83-2.93v-4c2-2.46,1.42-5.58,1.81-8.34C5.81,29.34,24.49,9.05,52.25,2.82c4.89-1.1,10.02-.78,14.71-2.82h3c.58,1.71,1.9.76,2.94.83,1.14.15,2.33.51,3.06-.83h72.95c.73,1.33,1.92.98,3.06.83,1.04-.07,2.36.88,2.94-.83h2c3.17,2.11,6.92,1.29,10.35,1.78,28.2,4.02,48.67,22.83,54.79,50.47,1.08,4.89.78,10.02,2.81,14.71v3c-1.7.58-.77,1.89-.83,2.93-.16,1.14-.51,2.33.83,3.06v72.95c-1.33.73-.98,1.92-.83,3.06.06,1.04-.87,2.36.83,2.94v4c-2.03,2.46-1.41,5.58-1.8,8.34-4.06,28.5-22.8,48.64-50.93,54.88-5.06,1.12-10.36.69-15.22,2.73ZM206.68,112.36c0-14.98.34-29.96-.07-44.92-.79-28.68-20.19-48.06-48.95-49.24-30.11-1.24-60.23-1.21-90.35-.01-25.43,1.02-42.93,15.28-47.85,39.77-2.53,12.59-1.93,25.52-2,38.32-.11,22.79-1.2,45.65,1.73,68.31,2.45,18.91,12.57,32.46,31.22,38.82,8.47,2.89,17.21,3.38,26.02,3.57,29.27.61,58.58,1.76,87.78-1.24,22.78-2.34,38.84-18.77,41.6-41.52,2.09-17.22,1.46-34.55.87-51.85Z"/>
  <path class="cls-2" d="M72.89.83c-1.04-.07-2.36.88-2.94-.83h3c-.01.28-.03.55-.06.83Z"/>
  <path class="cls-4" d="M72.89.83c.03-.28.05-.55.06-.83h3c-.73,1.34-1.92.98-3.06.83Z"/>
  <path class="cls-4" d="M151.96.83c-1.14.15-2.33.5-3.06-.83h3c0,.28.02.56.06.83Z"/>
  <path class="cls-2" d="M151.96.83c-.04-.28-.06-.55-.06-.83h3c-.57,1.71-1.9.76-2.94.83Z"/>
  <path class="cls-3" d="M0,69.95c1.7.58.77,1.89.83,2.93-.28-.01-.55,0-.83.06v-3Z"/>
  <path class="cls-3" d="M224.03,72.89c.06-1.04-.88-2.36.83-2.93v3c-.27-.06-.55-.08-.83-.06Z"/>
  <path class="cls-4" d="M0,72.95c.27-.06.55-.08.83-.06.16,1.14.51,2.33-.83,3.06v-3Z"/>
  <path class="cls-4" d="M224.03,72.89c.28-.01.55,0,.83.06v3c-1.34-.73-.99-1.92-.83-3.06Z"/>
  <path class="cls-4" d="M0,148.9c1.33.73.98,1.92.83,3.06-.28,0-.55-.03-.83-.06v-3Z"/>
  <path class="cls-4" d="M224.02,151.96c-.16-1.14-.51-2.33.83-3.06v3c-.28.04-.55.06-.83.06Z"/>
  <path class="cls-3" d="M0,151.9c.28.03.55.05.83.06-.06,1.04.87,2.36-.83,2.94v-3Z"/>
  <path class="cls-3" d="M224.02,151.96c.28,0,.55-.03.83-.06v3c-1.7-.58-.77-1.9-.83-2.94Z"/>
  <path class="cls-2" d="M69.95,224.85c.58-1.71,1.9-.76,2.94-.83.03.28.05.55.06.83h-3Z"/>
  <path class="cls-4" d="M72.95,224.85c0-.28-.03-.55-.06-.83,1.14-.15,2.33-.51,3.06.83h-3Z"/>
  <path class="cls-4" d="M148.9,224.85c.73-1.33,1.92-.98,3.06-.83-.04.28-.06.55-.06.83h-3Z"/>
  <path class="cls-2" d="M151.9,224.85c0-.28.02-.56.06-.83,1.04.07,2.36-.88,2.94.83h-3Z"/>
  <path class="cls-1" d="M56.69,112.1c.22-30.76,25.38-55.63,56.07-55.4,30.77.23,55.62,25.38,55.4,56.07-.23,30.77-25.38,55.62-56.06,55.4-30.77-.22-55.62-25.38-55.4-56.06ZM112.95,150.66c21.4-.45,38.09-17.7,37.74-39-.35-21.12-18.05-38.01-39.28-37.48-20.96.52-37.77,18.15-37.2,39.02.58,21.22,17.83,37.91,38.74,37.47Z"/>
  <path class="cls-1" d="M184.63,53.16c.16,7.3-5.78,13.49-13.05,13.61-7.03.11-13.38-6.15-13.47-13.27-.09-7.03,5.67-12.97,12.86-13.27,7.33-.31,13.5,5.53,13.66,12.93Z"/>
</svg>