<?xml version="1.0" standalone="no"?>
<!DOCTYPE svg PUBLIC "-//W3C//DTD SVG 20010904//EN"
 "http://www.w3.org/TR/2001/REC-SVG-20010904/DTD/svg10.dtd">
<svg version="1.0" xmlns="http://www.w3.org/2000/svg"
 width="700.000000pt" height="700.000000pt" viewBox="0 0 700.000000 700.000000"
 preserveAspectRatio="xMidYMid meet">
<metadata>
Created by potrace 1.14, written by Peter Selinger 2001-2017
</metadata>
<g transform="translate(0.000000,700.000000) scale(0.100000,-0.100000)"
fill="#000000" stroke="none">
<path d="M3278 6996 c-1 -2 -41 -6 -88 -10 -47 -4 -96 -8 -110 -10 -14 -2 -46
-7 -71 -10 -51 -7 -66 -10 -154 -25 -86 -16 -91 -17 -185 -41 -47 -12 -95 -24
-107 -26 -38 -7 -261 -83 -364 -124 -881 -351 -1596 -1067 -1949 -1950 -64
-161 -142 -412 -165 -531 -3 -13 -14 -69 -25 -124 -24 -124 -30 -163 -47 -345
-15 -162 -8 -595 12 -710 2 -14 6 -45 9 -70 42 -350 169 -756 345 -1103 221
-433 513 -798 891 -1114 75 -62 271 -207 325 -240 165 -100 214 -128 295 -171
327 -172 748 -307 1119 -358 25 -3 57 -8 71 -10 163 -25 682 -25 842 1 13 2
46 7 73 10 72 10 86 12 120 19 17 3 44 8 60 11 726 137 1431 539 1932 1101 94
105 104 117 120 142 14 19 24 22 88 22 l73 0 -2 33 c-4 45 -4 44 -28 44 -13 1
-28 1 -35 2 -7 0 30 63 80 139 277 412 452 843 541 1332 13 74 27 164 31 200
4 36 9 81 12 100 8 69 10 546 2 610 -4 36 -11 97 -14 135 -4 39 -8 72 -10 75
-2 3 -7 33 -10 65 -4 33 -9 63 -11 66 -2 4 -6 24 -10 45 -10 67 -71 305 -104
404 -192 582 -520 1090 -971 1505 -490 451 -1152 771 -1799 870 -25 4 -53 9
-62 11 -9 1 -43 6 -75 9 -32 4 -76 9 -98 12 -44 5 -541 13 -547 9z m462 -130
c52 -3 104 -8 115 -10 11 -2 47 -7 80 -11 533 -61 1090 -284 1560 -624 50 -36
95 -70 101 -76 6 -5 33 -28 60 -50 198 -162 428 -408 581 -623 268 -376 475
-838 559 -1247 18 -89 40 -215 48 -280 25 -199 27 -237 27 -431 1 -257 -13
-415 -57 -641 -79 -408 -223 -786 -429 -1122 -42 -68 -58 -86 -76 -86 -22 0
-23 4 -21 43 2 23 0 42 -5 43 -4 0 -29 1 -56 2 l-47 2 0 -47 c0 -45 -2 -48
-25 -48 -22 0 -25 -4 -25 -39 0 -34 3 -38 23 -37 20 1 22 -4 25 -68 l3 -68
-61 -73 c-257 -311 -554 -569 -880 -766 -278 -167 -663 -326 -930 -384 -8 -2
-44 -10 -80 -19 -68 -16 -213 -41 -290 -51 -96 -12 -113 -14 -208 -20 -168
-12 -460 -7 -592 10 -106 13 -233 33 -318 49 -85 17 -285 71 -377 101 -871
289 -1585 914 -1981 1735 -105 216 -182 429 -237 655 -33 132 -38 160 -52 245
-3 19 -10 60 -15 90 -20 117 -33 317 -32 491 0 243 21 446 68 674 230 1102
990 2014 2033 2440 189 77 490 167 637 189 21 4 64 11 94 16 30 5 78 12 105
15 28 4 61 8 75 11 14 2 79 7 145 10 66 4 121 7 122 8 4 3 244 -3 333 -8z"/>
<path d="M2048 5935 c-2 -1 -23 -5 -48 -8 -154 -20 -318 -114 -424 -243 -206
-250 -214 -605 -20 -864 85 -112 227 -209 362 -246 34 -10 62 -20 63 -23 1 -3
2 -186 2 -406 l2 -400 125 0 125 0 0 405 0 405 -40 -4 c-59 -6 -135 -7 -175
-1 l-35 5 -1 158 c0 87 -5 161 -10 166 -5 4 -78 32 -161 62 -84 30 -153 57
-153 60 0 3 6 13 13 23 14 19 -6 24 245 -69 34 -13 62 -20 63 -17 1 4 2 111 3
239 0 127 4 234 8 238 7 7 223 9 235 2 5 -3 8 -76 8 -162 0 -86 2 -160 5 -165
4 -7 242 300 281 362 5 7 15 5 28 -4 22 -15 19 -19 -146 -239 l-168 -223 0
-209 c0 -115 3 -211 7 -213 13 -8 117 25 182 58 269 135 417 425 372 731 -41
283 -293 535 -573 573 -50 7 -171 13 -175 9z"/>
<path d="M4480 5634 c-370 -64 -669 -335 -765 -695 -29 -106 -37 -245 -22
-374 23 -200 132 -413 284 -555 70 -66 111 -100 119 -100 3 0 18 -9 32 -19 70
-50 230 -115 312 -127 76 -11 70 14 70 -280 l0 -264 125 0 125 0 0 265 c0 146
3 265 8 266 13 1 37 6 102 23 256 64 474 235 600 468 39 73 86 195 95 250 58
324 -19 608 -226 842 -131 148 -365 275 -559 302 -85 11 -225 11 -300 -2z
m280 -704 l0 -191 55 31 c30 16 79 43 109 60 217 119 240 130 248 118 19 -30
19 -30 -107 -98 -44 -24 -111 -60 -148 -82 -38 -21 -71 -38 -73 -38 -2 0 -22
-11 -44 -25 l-40 -25 0 -465 0 -465 -32 -2 c-39 -1 -152 -1 -190 1 l-28 1 0
134 0 135 -121 103 c-67 57 -134 114 -149 128 -15 14 -64 56 -109 94 -44 38
-81 73 -81 76 0 4 7 13 15 20 16 13 37 -4 275 -210 42 -36 96 -82 120 -102
l45 -38 3 515 2 515 125 0 125 0 0 -190z"/>
<path d="M2980 5097 c-41 -26 -55 -39 -96 -92 -35 -47 -81 -150 -90 -204 l-6
-37 174 -94 c95 -52 202 -109 238 -128 36 -19 70 -39 77 -46 9 -8 -11 -30 -85
-93 -53 -46 -110 -94 -127 -109 -55 -47 -128 -110 -345 -295 -118 -101 -217
-186 -220 -189 -3 -3 -48 -41 -100 -85 -52 -44 -100 -84 -106 -90 -6 -5 -30
-26 -53 -45 -24 -19 -50 -42 -60 -51 -9 -8 -64 -56 -122 -106 l-106 -92 3 -58
c7 -194 181 -375 522 -546 105 -53 328 -143 452 -182 l85 -27 963 0 c530 0
966 3 969 6 4 4 -42 156 -125 409 -26 80 -43 107 -66 107 -30 0 -404 157 -571
240 -267 132 -405 232 -454 327 -25 50 -26 74 -6 113 15 30 74 80 93 80 29 0
17 23 -39 77 -126 120 -231 310 -255 463 -3 19 -7 37 -9 40 -7 11 -17 143 -17
217 -1 67 8 172 17 223 1 8 6 33 9 55 l7 40 -248 94 c-136 52 -252 96 -258 98
-5 1 -26 -7 -45 -20z m692 -1857 c91 -22 99 -23 145 -8 61 20 78 11 28 -14
-52 -27 -120 -27 -256 1 -64 13 -128 21 -142 17 -14 -3 -62 -31 -106 -61 -94
-64 -187 -99 -246 -92 -55 7 -71 14 -143 65 -34 24 -78 50 -97 57 -40 17 -65
10 -166 -48 -77 -43 -144 -59 -184 -43 -25 10 -26 13 -12 25 12 9 31 11 66 6
42 -6 55 -3 80 15 56 39 161 81 206 82 57 1 92 -14 188 -79 103 -70 128 -70
228 -5 180 118 224 127 411 82z m-187 -305 c28 -9 86 -37 131 -61 100 -54 146
-62 194 -36 19 11 60 33 90 49 103 57 161 53 271 -19 114 -74 202 -94 289 -63
48 17 70 19 70 6 0 -17 -145 -60 -180 -54 -3 0 -32 3 -65 7 -63 6 -109 26
-190 82 -77 52 -105 57 -157 28 -118 -67 -151 -79 -223 -79 -65 0 -77 4 -166
52 -52 28 -121 58 -153 66 -106 28 -221 6 -319 -61 -43 -31 -87 -42 -87 -23 0
9 56 48 108 75 102 53 283 67 387 31z"/>
<path d="M3539 2495 c-1 -11 -2 -50 -2 -87 l0 -67 -29 24 c-23 19 -41 25 -78
25 -93 0 -148 -80 -137 -199 8 -85 62 -142 136 -143 29 0 52 7 72 21 34 26 39
26 39 3 0 -15 8 -18 52 -17 l52 1 0 217 c1 120 -1 223 -4 230 -3 7 -25 12 -52
12 -41 0 -48 -2 -49 -20z m-41 -184 c30 -2 47 -91 28 -149 -15 -46 -91 -48
-115 -3 -6 11 -11 40 -11 66 0 52 33 96 66 90 11 -2 25 -4 32 -4z"/>
<path d="M4459 2515 c-1 0 -3 -19 -4 -42 -4 -46 5 -52 73 -44 30 3 32 6 32 42
0 21 -3 39 -7 40 -6 1 -84 4 -94 4z"/>
<path d="M1800 2486 c0 -11 85 -381 95 -416 4 -12 21 -15 70 -16 l65 0 10 35
c5 20 11 47 14 61 20 92 49 207 56 219 5 9 10 -4 15 -35 10 -62 8 -50 39 -173
14 -57 26 -104 26 -105 0 -1 29 -2 64 -2 l64 -1 10 36 c20 66 85 356 86 381 1
23 -2 25 -48 25 -53 0 -53 0 -70 -80 -36 -160 -52 -225 -56 -225 -3 0 -20 66
-39 148 -18 81 -37 149 -42 153 -5 3 -30 5 -56 4 l-48 -1 -36 -149 c-21 -83
-38 -152 -39 -155 -1 -3 -18 64 -38 149 l-37 155 -53 2 c-34 1 -52 -3 -52 -10z"/>
<path d="M2560 2390 c-81 -8 -87 -11 -84 -50 3 -41 6 -43 40 -30 16 6 51 11
78 12 40 0 54 -5 68 -22 10 -13 17 -25 14 -27 -2 -2 -34 -6 -71 -8 -113 -6
-155 -38 -155 -120 0 -82 117 -128 192 -74 33 23 40 24 36 2 -2 -14 6 -17 50
-18 60 -2 54 -17 53 138 0 104 -14 152 -51 175 -32 20 -98 28 -170 22z m112
-211 c-5 -54 -77 -82 -108 -42 -29 35 16 71 85 67 21 -1 26 -6 23 -25z"/>
<path d="M3075 2390 c-41 -9 -75 -28 -76 -43 -1 -7 -4 -1 -8 13 -6 22 -12 25
-56 25 l-50 0 0 -165 0 -165 50 0 50 0 1 100 c1 122 16 155 70 155 18 0 36 -5
40 -11 7 -13 12 -77 13 -180 l1 -65 50 0 c37 0 50 4 51 16 6 76 -1 236 -11
260 -20 48 -70 72 -125 60z"/>
<path d="M3880 2392 c-115 -15 -174 -97 -155 -212 8 -50 47 -98 94 -117 41
-18 131 -18 196 -2 44 11 45 12 45 50 0 22 -2 39 -4 39 -2 0 -21 -6 -43 -14
-74 -26 -135 -24 -163 6 -39 42 -29 47 103 50 l122 3 0 30 c1 36 -20 92 -42
118 -31 34 -100 56 -153 49z m62 -84 c23 -19 30 -48 13 -49 -126 -9 -144 -3
-105 39 23 24 68 29 92 10z"/>
<path d="M4859 2390 c-20 -3 -49 -16 -66 -28 l-29 -21 0 21 c1 19 -5 22 -49
22 l-50 1 -3 -165 -2 -166 52 1 53 1 1 81 c2 118 10 150 42 167 32 16 67 6 74
-21 3 -10 5 -63 6 -118 1 -55 2 -103 2 -106 0 -6 57 -9 85 -4 19 4 20 11 19
125 -2 128 -12 170 -48 193 -32 21 -48 24 -87 17z"/>
<path d="M4156 2226 c1 -88 2 -163 3 -166 0 -3 24 -5 51 -5 l50 0 0 92 c0 51
5 103 11 117 14 30 65 50 103 40 25 -6 26 -5 26 40 l0 46 -39 0 c-28 0 -49 -8
-70 -26 l-31 -26 0 24 c0 21 -5 23 -53 24 l-52 2 1 -162z"/>
<path d="M4455 2231 c1 -86 2 -161 3 -167 1 -7 22 -11 52 -10 l50 1 -2 165 -3
165 -51 1 -50 0 1 -155z"/>
<path d="M5131 2363 c-62 -49 -80 -148 -41 -227 25 -51 59 -76 108 -80 37 -3
102 20 102 36 0 4 5 8 11 8 16 0 3 -59 -17 -81 -25 -28 -105 -30 -166 -4 -15
6 -18 1 -18 -33 0 -37 2 -41 33 -48 85 -19 169 -8 220 28 52 37 59 66 61 245
1 91 -1 167 -4 171 -3 4 -26 8 -52 8 -47 1 -55 -5 -49 -39 1 -5 -14 3 -32 17
-47 36 -110 36 -156 -1z m146 -52 c20 -1 41 -53 38 -92 -4 -52 -20 -76 -57
-84 -45 -10 -78 28 -78 91 0 51 33 95 66 89 11 -2 25 -4 31 -4z"/>
<path d="M4837 1783 c-2 -5 -3 -42 -2 -85 0 -72 -1 -76 -19 -65 -50 31 -62 35
-97 33 -78 -6 -124 -67 -128 -168 -5 -122 82 -202 185 -168 19 7 34 15 34 20
0 4 7 11 15 14 11 4 15 0 13 -12 -2 -14 6 -18 50 -20 37 -2 52 1 53 10 1 19 1
378 0 416 -1 32 -1 32 -50 32 -28 0 -52 -3 -54 -7z m-37 -203 c38 -20 44 -124
10 -165 -18 -21 -67 -18 -90 5 -15 15 -20 33 -20 75 0 79 43 116 100 85z"/>
<path d="M1400 1769 c-67 -20 -100 -70 -94 -144 5 -53 45 -89 121 -110 79 -21
107 -37 111 -61 7 -50 -83 -65 -173 -28 l-55 22 0 -39 c0 -22 -1 -42 -2 -46
-2 -5 20 -15 47 -24 59 -19 187 -18 228 1 38 19 67 69 67 118 0 57 -16 86 -59
110 -32 17 -53 23 -135 39 -29 5 -46 23 -46 49 0 37 64 50 148 28 30 -8 57
-12 61 -10 4 3 5 22 3 44 -4 46 -8 48 -117 56 -38 3 -86 1 -105 -5z"/>
<path d="M3759 1763 c0 -4 -1 -104 -2 -221 l-2 -212 58 0 57 0 0 75 c0 41 3
75 8 76 4 0 36 2 72 3 36 2 80 11 98 20 92 48 95 184 5 243 -22 15 -53 19
-160 21 -73 2 -133 0 -134 -5z m219 -89 c15 -10 22 -24 22 -44 0 -44 -27 -66
-80 -65 l-45 0 -3 63 -3 62 43 -1 c24 -1 53 -8 66 -15z"/>
<path d="M2908 1750 c-2 -7 -5 -41 -7 -67 -1 -17 -7 -23 -26 -23 -22 0 -25 -4
-25 -39 0 -34 3 -39 20 -36 28 5 32 -5 34 -103 3 -132 22 -152 142 -152 l65 0
-3 38 c-3 36 -5 37 -41 38 -21 0 -42 5 -48 11 -5 5 -9 45 -7 89 l3 79 50 0 50
0 2 38 1 37 -54 0 -54 0 0 45 c0 25 -3 45 -7 46 -31 4 -93 4 -95 -1z"/>
<path d="M1915 1658 c-16 -6 -38 -17 -47 -26 -16 -14 -18 -13 -18 7 0 20 -4
22 -52 19 l-52 -3 -1 -218 c0 -121 2 -222 5 -226 3 -4 26 -7 53 -7 l47 -1 0
84 0 84 28 -21 c16 -12 46 -24 68 -26 167 -21 216 275 56 337 -29 11 -48 10
-87 -3z m49 -84 c34 -33 33 -137 0 -161 -27 -19 -69 -16 -90 8 -29 32 -26 125
5 150 28 23 64 24 85 3z"/>
<path d="M2269 1659 c-127 -36 -155 -240 -42 -310 52 -32 149 -35 205 -6 108
57 114 238 10 300 -37 21 -124 29 -173 16z m117 -90 c25 -28 25 -120 0 -148
-24 -26 -63 -32 -87 -12 -41 33 -42 147 -1 170 28 17 68 12 88 -10z"/>
<path d="M2755 1654 c-16 -8 -36 -22 -42 -31 -11 -15 -13 -13 -13 11 0 26 -1
27 -52 24 l-53 -3 0 -162 -1 -163 52 0 52 0 4 106 c3 98 5 108 28 126 18 14
36 19 67 16 l43 -3 0 45 c0 43 -2 46 -27 48 -16 1 -41 -5 -58 -14z"/>
<path d="M3234 1659 c-47 -13 -68 -43 -68 -95 2 -68 32 -91 143 -108 44 -6 59
-21 45 -44 -17 -27 -97 -25 -166 3 -15 6 -18 1 -18 -33 0 -49 10 -54 119 -58
118 -4 171 27 171 103 0 72 -33 93 -175 115 -23 4 -35 48 -13 49 7 0 22 2 32
4 21 4 89 -8 119 -20 16 -7 18 -3 15 35 -2 34 -7 44 -23 47 -45 9 -152 10
-181 2z"/>
<path d="M4277 1655 c-132 -47 -145 -251 -20 -314 34 -18 111 -22 157 -10 76
20 118 79 117 165 0 75 -27 121 -85 151 -39 20 -124 25 -169 8z m123 -85 c28
-28 30 -107 4 -147 -22 -35 -84 -32 -106 5 -22 36 -18 114 6 141 24 27 70 27
96 1z"/>
<path d="M5138 1658 c-82 -21 -128 -103 -114 -201 9 -58 54 -110 110 -125 40
-12 145 -10 164 2 11 6 18 86 8 86 -2 0 -19 -6 -37 -14 -19 -7 -38 -12 -44
-11 -5 2 -22 6 -37 9 -53 12 -76 107 -38 156 16 21 27 25 72 25 29 0 61 -4 71
-9 15 -7 17 -3 17 32 0 37 -3 41 -32 51 -39 12 -89 11 -140 -1z"/>
<path d="M5454 1660 c-46 -10 -50 -16 -46 -54 4 -31 6 -34 23 -26 25 14 118
20 145 10 12 -5 24 -18 27 -29 5 -20 1 -21 -59 -21 -107 0 -164 -37 -164 -107
0 -65 31 -100 98 -109 37 -5 102 12 102 26 0 4 7 10 15 14 8 3 14 2 14 -2 -4
-27 4 -32 51 -32 33 0 50 4 51 13 1 6 1 61 1 120 -1 121 -15 161 -68 186 -32
16 -141 23 -190 11z m141 -188 c17 -11 12 -31 -14 -58 -23 -24 -45 -29 -75
-18 -22 8 -21 60 2 73 20 12 72 14 87 3z"/>
<path d="M5864 1659 c-42 -12 -65 -40 -71 -88 -5 -35 -2 -44 24 -70 21 -21 44
-31 79 -37 67 -9 94 -21 94 -38 0 -36 -90 -45 -165 -16 -14 5 -27 10 -29 10
-2 0 0 -48 3 -71 3 -22 156 -34 214 -18 109 30 101 175 -9 194 -105 19 -109
20 -112 43 -2 15 2 22 15 23 62 5 92 3 120 -8 44 -18 43 -18 43 26 0 28 -5 41
-17 46 -28 11 -155 14 -189 4z"/>
</g>
</svg>
