<?xml version="1.0" encoding="UTF-8"?>
<svg id="Layer_1" data-name="Layer 1" xmlns="http://www.w3.org/2000/svg" viewBox="0 0 224.84 224.82">
  <defs>
    <style>
      .cls-1 {
        fill: #5a3f3c;
        stroke-width: 0px;
      }
    </style>
  </defs>
  <path class="cls-1" d="M224.84,99.92v24.98c-1.05.31-.91,1.21-1.02,2.01-6.06,45.77-38.41,82.43-83.24,94.22-5.5,1.45-11.11,2.47-16.67,3.69h-23.98c-.32-1.05-1.21-.89-2.01-.99-46-6.26-82.31-38.4-94.33-83.24-1.39-5.2-1.38-10.7-3.59-15.69v-24.98c1.04-.32.89-1.21.99-2,2.21-17.39,7.93-33.57,18.02-47.88C38.41,22.53,63.88,4.66,98.36,1.73c.57-.05,1.05-1.13,1.57-1.73h23.98c.23.76.82.89,1.51.97,45.62,5.04,83.89,38.01,95.5,82.32,1.44,5.51,2.61,11.09,3.91,16.64h0ZM85.97,116.07c4.97,1.36,9.95,1.34,14.92,0,4.34-.11,8.66.62,12.9,1.14,18.41,2.26,35.94,7.54,51.95,17.26,4.18,2.54,9.2,1.26,11.9-2.8,2.43-3.66,1.62-8.67-2.05-11.59-1.54-1.23-3.33-2.17-5.07-3.14-21.61-12.01-45.02-17.45-69.49-18.74-17.37-.92-34.48,1.13-51.23,5.9-5.89,1.68-8.63,6.2-7.1,11.16,1.62,5.25,5.99,7.35,11.9,5.73,10.27-2.81,20.69-4.7,31.36-4.94v.02ZM110.89,81.11c4.45.42,8.92.7,13.34,1.29,19.39,2.59,37.97,7.69,55.14,17.42,5.21,2.95,11.4.81,14.18-4.22,2.71-4.9,1.3-10.66-3.8-13.89-3.49-2.21-7.23-4.06-10.98-5.81-18.71-8.7-38.53-13.18-58.98-15.2-25.52-2.52-50.79-1.59-75.65,5.28-7.33,2.03-10.74,7.27-9.04,13.6,1.57,5.85,7.46,8.66,14.48,6.64,10.59-3.04,21.5-4.01,32.38-5.13,3.01,1.25,5.99,1.39,8.96-.14,3.34-.49,6.67-.49,10.01,0,3.29,1.55,6.61,1.38,9.95.16h0ZM92.58,134.83c-7.13-.39-16.53.91-25.91,2.29-4.92.72-9.85,1.64-14.62,3-3.77,1.08-5.77,4.09-4.91,8.1.72,3.38,3.72,6.68,6.5,6.09,8.35-1.76,16.73-2.77,25.11-4.04,7.17-1.09,14.26-.79,21.26-1.04,9.75-.35,19.61,1.32,29.14,4.22,8.78,2.67,17.14,6.2,25,10.92,2.7,1.62,5.36,1.58,7.92-.26,2.23-1.59,3.05-3.79,2.81-6.52-.28-3.29-2.6-4.81-5.09-6.25-20.05-11.64-41.78-16.63-67.22-16.51h0Z"/>
</svg>