<?xml version="1.0" encoding="UTF-8"?>
<svg id="Layer_1" data-name="Layer 1" xmlns="http://www.w3.org/2000/svg" viewBox="0 0 278 278">
  <defs>
    <style>
      .cls-1, .cls-2 {
        isolation: isolate;
      }

      .cls-2 {
        fill: #593e3b;
        font-family: ErasITC-Bold, 'Eras Bold ITC';
        font-size: 24px;
        font-weight: 700;
      }

      .cls-3 {
        fill: none;
        stroke: #593e3b;
        stroke-miterlimit: 10;
        stroke-width: 5px;
      }

      .cls-4 {
        fill: #593d3b;
        stroke-width: 0px;
      }
    </style>
  </defs>
  <circle class="cls-3" cx="139" cy="139" r="136.5"/>
  <g>
    <path class="cls-4" d="M152.84,126.16c-20.33-15.75-12.51-43.66-12.51-43.66l-20.32-7.82c-7.82,3.13-9.38,14.07-9.38,14.07l20.19,10.94-53.01,45.33c-3.58,20.32,42.21,32.6,42.21,32.6h76.81l-6.47-20.08c-64.09-23.45-37.52-31.38-37.52-31.38ZM113.46,150.64c-2-.8-3.38.04-5.09,1.07-2.73,1.65-6.81,4.28-9.95,2.14h0c-.33-.22,2.09-1.4,2.74-.96.65.44,1.31.74,2.06.48.84-.3,1.64-.88,2.4-1.34,1.75-1.06,3.52-2.07,5.52-2.58,1.7-.43,3.4-.44,5.06.23s3.08,1.9,4.48,2.9,3.17,2.17,4.99,1.95c1.61-.19,3.16-1.52,4.45-2.41,3.07-2.13,6.36-4.07,10.25-3.88,1.97.1,3.84.66,5.73,1.17,1.66.45,3.89,1.3,5.44.24.49-.34,1.46-.63,2.05-.55.51.07.62.25.15.57-4.42,3.02-9.09.74-13.75-.12-1.03-.19-2.16-.35-3.18-.05-.91.27-1.76.82-2.56,1.33-1.66,1.06-3.25,2.32-4.95,3.22-1.7.9-3.55,1.55-5.52,1.61s-3.65-.64-5.3-1.74c-1.65-1.1-3.15-2.54-5.02-3.28ZM179.44,166.93c-4.32,1.92-9.36,2.26-13.66.09-1.84-.93-3.34-2.37-5.17-3.31-.93-.48-2.07-.9-3.1-.52-.79.29-1.51.83-2.22,1.29-3.41,2.22-7.05,3.66-11.07,2.09-1.94-.76-3.64-1.89-5.54-2.88-1.9-.99-3.96-1.64-6.09-1.84-4.09-.39-8.08.82-11.21,3.51h.01c-.53.47-1.31.73-2.01.75-.26.01-1.27-.1-.73-.56,3.48-2.98,7.9-4.68,12.46-5.02,4.15-.31,7.96.72,11.57,2.73,1.96,1.1,4.04,2.5,6.33,2.69,1.96.16,3.62-1.47,5.21-2.42,1.67-.99,3.51-1.74,5.49-1.81s3.7.79,5.31,1.88c1.86,1.25,3.52,2.55,5.77,3.17,2.25.63,4.73.63,6.89-.34.47-.21,1.6-.67,2.12-.37.52.3.06.67-.35.86Z"/>
    <polygon class="cls-4" points="196.83 177.62 196.83 177.62 196.83 177.63 196.83 177.62"/>
  </g>
  <g>
    <path class="cls-4" d="M83.78,42.25c-15.26,0-27.63,12.37-27.63,27.63,0,13.55,9.76,24.82,22.63,27.17v-12.77l-12.88-4.67.68-1.88,12.2,4.42v-19.48h10v14.02l11.71-15.62,1.6,1.2-13.31,17.76v17.02c12.87-2.35,22.63-13.62,22.63-27.17,0-15.26-12.37-27.63-27.63-27.63Z"/>
    <path class="cls-4" d="M78.78,97.05v32.31h10v-32.31c-1.62.3-3.29.46-5,.46s-3.38-.16-5-.46Z"/>
  </g>
  <path class="cls-4" d="M184.05,53.75c-20.87,0-37.8,16.93-37.8,37.8,0,19.18,14.29,35.02,32.8,37.47v21.14h10v-21.14c18.51-2.45,32.8-18.28,32.8-37.47,0-20.88-16.93-37.8-37.8-37.8ZM189.05,129.02c-1.64.22-3.3.34-5,.34s-3.36-.12-5-.34v-10.64l-18.36-15.76,1.3-1.52,17.06,14.64v-41.06h10v15.06l16-8.76.96,1.75-16.96,9.29v37Z"/>
  <g class="cls-1">
    <text class="cls-2" transform="translate(70.56 196.4)"><tspan x="0" y="0">Wandering </tspan></text>
    <text class="cls-2" transform="translate(50.04 225.2)"><tspan x="0" y="0">Sports Podcast</tspan></text>
  </g>
</svg>