<?xml version="1.0" encoding="UTF-8"?>
<svg id="Layer_1" data-name="Layer 1" xmlns="http://www.w3.org/2000/svg" viewBox="0 0 225 225">
  <defs>
    <style>
      .cls-1 {
        fill: #593e3b;
        stroke-width: 0px;
      }
    </style>
  </defs>
  <path class="cls-1" d="M112.44,224.93c-36.13,0-72.27-.02-108.4.05-2.72,0-4.05-.04-4.04-3.61C.14,148.76.14,76.14.01,3.53,0,.37.86.03,3.67.03,76.27.11,148.87.12,221.47,0c3.16,0,3.51.85,3.5,3.66-.09,72.61-.1,145.23.03,217.84,0,3.16-.85,3.51-3.66,3.5-36.3-.1-72.6-.07-108.9-.07ZM16.11,204.95c10.15,0,19.29-.07,28.43.05,2.1.03,3.3-.83,4.58-2.31,9.37-10.81,18.81-21.56,28.24-32.32,8.63-9.84,17.29-19.67,26.01-29.58,15.88,20.78,31.55,41.2,47.08,61.72,1.53,2.02,3.11,2.48,5.42,2.47,18.64-.07,37.29-.03,55.93-.07.86,0,2.02.6,2.59-.79-25.61-33.9-51.18-67.84-76.92-101.66-2.02-2.66-1.98-4.06.18-6.49,15.01-16.92,29.87-33.99,44.76-51.02,6.72-7.68,13.4-15.39,20.69-23.78-9.74,0-18.36.14-26.97-.08-2.98-.08-4.91.94-6.76,3.13-5.47,6.48-11.09,12.84-16.68,19.22-10.62,12.14-21.26,24.26-32.07,36.59-13.95-18.45-27.79-36.63-41.46-54.94-2.07-2.77-4.11-4.08-7.74-4.02-15.81.23-31.63.1-47.44.1-3.72,0-7.44,0-11.82,0,1.22,1.81,1.89,2.92,2.68,3.95,23.7,31.01,47.36,62.05,71.19,92.96,2.09,2.71,2.5,4.22.03,6.93-8.61,9.48-16.92,19.23-25.35,28.88-14.64,16.76-29.29,33.51-44.62,51.05Z"/>
  <path class="cls-1" d="M48.27,39.02c6.1,0,11.09.15,16.05-.07,2.44-.11,3.57,1.24,4.78,2.85,36.16,47.82,72.32,95.62,108.47,143.44.07.09,0,.3-.05,1.09-4.99,0-10.03-.01-15.08,0-2.52,0-3.19-2.25-4.31-3.72-27.58-35.99-55.09-72.03-82.62-108.05-8.85-11.58-17.73-23.13-27.25-35.55Z"/>
</svg>